Coordinates
version=1
nRows=54
nColumns=12
inDegrees=yes

Units are S.I. units (second, meters, Newtons, ...)
Angles are in degrees

endheader
time	SC_y	SC_z	SC_x	AC_y	AC_z	AC_x	GH_y	GH_z	GH_yy	EL_x	PS_y
       0.0               -33.3          6.225          18.29          62.94          1.922          16.07          84.89          13.94          130.0          31.62          66.73
   0.04701               -33.3          6.228           18.3          62.94          1.919          16.07          84.88          13.94          130.0          31.63          66.73
   0.09401               -33.3          6.232           18.3          62.93          1.916          16.07          84.88          13.95          130.0          31.65          66.73
     0.141               -33.3          6.235          18.31          62.93          1.912          16.07          84.87          13.95          130.0          31.66          66.73
     0.188               -33.3          6.239          18.32          62.93          1.908          16.07          84.87          13.96          130.0          31.68          66.74
     0.235               -33.3          6.243          18.33          62.93          1.904          16.07          84.86          13.97          130.0          31.69          66.74
     0.282               -33.3          6.247          18.33          62.93            1.9          16.06          84.85          13.98          130.0          31.71          66.74
     0.329               -33.3          6.252          18.34          62.92          1.895          16.06          84.85          13.98          130.0          31.73          66.74
    0.3761               -33.3          6.257          18.35          62.92           1.89          16.06          84.84          13.99          130.0          31.75          66.74
    0.4231               -33.3          6.262          18.36          62.92          1.885          16.06          84.83           14.0          130.0          31.77          66.74
    0.4701               -33.3          6.268          18.38          62.92          1.879          16.06          84.82          14.01          130.0          31.79          66.74
    0.5171               -33.3          6.274          18.39          62.91          1.873          16.06          84.81          14.02          130.0          31.82          66.74
    0.5641               -33.3          6.281           18.4          62.91          1.867          16.06          84.81          14.04          130.0          31.84          66.74
    0.6111               -33.3          6.288          18.41          62.91          1.859          16.06           84.8          14.05          130.0          31.87          66.74
    0.6581               -33.3          6.296          18.43           62.9          1.852          16.05          84.78          14.06          130.0           31.9          66.74
    0.7051               -33.3          6.304          18.45           62.9          1.843          16.05          84.77          14.08          130.0          31.93          66.74
    0.7521               -33.3          6.313          18.46          62.89          1.834          16.05          84.76          14.09          130.0          31.97          66.75
    0.7991               -33.3          6.323          18.48          62.89          1.824          16.05          84.74          14.11          130.0          32.01          66.75
    0.8461               -33.3          6.334           18.5          62.88          1.813          16.04          84.73          14.13          130.0          32.05          66.75
    0.8931               -33.3          6.346          18.53          62.88          1.801          16.04          84.71          14.15          130.0           32.1          66.75
    0.9401               -33.3          6.359          18.55          62.87          1.788          16.04          84.69          14.18          130.0          32.15          66.75
    0.9871               -33.3          6.374          18.58          62.87          1.774          16.03          84.67           14.2          130.0          32.21          66.75
     1.034               -33.3           6.39          18.61          62.86          1.758          16.03          84.65          14.23          130.0          32.27          66.76
     1.081               -33.3          6.407          18.65          62.85           1.74          16.03          84.62          14.26          130.0          32.34          66.76
     1.128              -33.29          6.427          18.69          62.84          1.721          16.02           84.6           14.3          130.0          32.42          66.76
     1.175              -33.29          6.449          18.73          62.83          1.699          16.02          84.57          14.34          130.0          32.51          66.77
     1.222              -33.29          6.473          18.78          62.82          1.674          16.01          84.53          14.38          130.1           32.6          66.77
     1.269              -33.29          6.501          18.83           62.8          1.647           16.0          84.49          14.43          130.1          32.71          66.77
     1.316              -33.29          6.532          18.89          62.79          1.616           16.0          84.45          14.49          130.1          32.84          66.78
     1.363              -33.29          6.567          18.96          62.77           1.58          15.99           84.4          14.55          130.1          32.98          66.78
      1.41              -33.28          6.608          19.04          62.75           1.54          15.98          84.34          14.62          130.1          33.14          66.79
     1.457              -33.28          6.654          19.13          62.73          1.494          15.97          84.27          14.71          130.1          33.32          66.79
     1.504              -33.28          6.708          19.23           62.7           1.44          15.95           84.2           14.8          130.2          33.53           66.8
     1.551              -33.28           6.77          19.36          62.67          1.378          15.94          84.11          14.92          130.2          33.78          66.81
     1.598              -33.27          6.842           19.5          62.64          1.306          15.92           84.0          15.05          130.2          34.07          66.82
     1.645              -33.27          6.928          19.67           62.6           1.22           15.9          83.88           15.2          130.2          34.41          66.83
     1.692              -33.26           7.03          19.87          62.55          1.118          15.88          83.73          15.38          130.3          34.81          66.85
     1.739              -33.26          7.152           20.1          62.49         0.9963          15.85          83.56           15.6          130.3           35.3          66.87
     1.786              -33.25            7.3          20.39          62.42         0.8488          15.81          83.35          15.87          130.4          35.88          66.89
     1.833              -33.24           7.48          20.75          62.33         0.6685          15.77          83.09          16.19          130.5           36.6          66.91
      1.88              -33.23          7.703          21.18          62.23         0.4461          15.72          82.77           16.6          130.6          37.48          66.94
     1.927              -33.21          7.981          21.72          62.09         0.1686          15.65          82.37           17.1          130.7          38.59          66.98
     1.974              -33.19          8.331          22.41          61.92        -0.1808          15.57          81.87          17.73          130.8          39.97          67.03
     2.021              -33.17          8.776          23.28          61.71        -0.6251          15.46          81.24          18.53          131.0          41.74           67.1
     2.068              -33.14          9.345          24.39          61.44         -1.194          15.32          80.42          19.55          131.2           44.0          67.18
     2.115               -33.1          10.08          25.82          61.08         -1.923          15.15          79.38          20.87          131.5          46.89          67.28
     2.162              -33.05          11.01          27.64          60.63         -2.856          14.92          78.04          22.55          131.9           50.6          67.42
     2.209              -32.99          12.18          29.94          60.07         -4.028          14.64          76.36          24.66          132.4          55.25          67.59
     2.256              -32.91          13.61          32.74          59.38         -5.456           14.3          74.32          27.23          133.0          60.92          67.79
     2.303              -32.82          15.27          35.98          58.58         -7.111           13.9          71.95          30.21          133.7           67.5          68.03
      2.35              -32.73          17.07          39.49          57.72         -8.904          13.47          69.38          33.44          134.4          74.62          68.29
     2.397              -32.63          18.86           43.0          56.86          -10.7          13.04          66.81          36.67          135.2          81.74          68.54
     2.444              -32.55          20.52          46.24          56.06         -12.35          12.65          64.44          39.66          135.9          88.31          68.78
     2.491              -32.47          21.95          49.03          55.37         -13.78           12.3          62.39          42.23          136.5          93.99          68.98
